# xmcd CD database file
#
# Track frame offsets:
#	150
#	18284
#	38013
#	59343
#	79540
#	101289
#	127871
#	146785
#	171101
#	189265
#	207342
#
# Disc length: 2976 seconds
#
# Revision: 0
# Processed by: cddbd v1.4PL0 Copyright (c) Steve Scherf et al.
# Submitted via: CDex 1.50Beta7
#
DISCID=850b9e0b
DTITLE=Jim Kahr - Nothin' To Lose
DYEAR=2002
DGENRE=Blues
TTITLE0=Big City Struggle
TTITLE1=Hurtin' In The Morning
TTITLE2=With Somebody
TTITLE3=Wondering Why
TTITLE4=Better Days Are Comin'
TTITLE5=Got To Be A Way
TTITLE6=Keepin' It Hot
TTITLE7=Listen To The Message
TTITLE8=Landin' On You
TTITLE9=Nothin' To Lose
TTITLE10=Like The Way You Do
EXTD=YEAR: 2002
EXTT0=
EXTT1=
EXTT2=
EXTT3=
EXTT4=
EXTT5=
EXTT6=
EXTT7=
EXTT8=
EXTT9=
EXTT10=
PLAYORDER=
